<?xml version="1.0" standalone="no"?><!DOCTYPE svg PUBLIC "-//W3C//DTD SVG 1.1//EN" "http://www.w3.org/Graphics/SVG/1.1/DTD/svg11.dtd"><svg t="1531277194192" class="icon" style="" viewBox="0 0 1024 1024" version="1.1" xmlns="http://www.w3.org/2000/svg" p-id="1798" xmlns:xlink="http://www.w3.org/1999/xlink" width="32" height="32"><defs><style type="text/css"></style></defs><path d="M42.666667 917.333333V396.8c0-19.2 8.533333-38.4 25.6-51.2l405.333333-292.266667c10.666667-6.4 25.6-10.666667 38.4-10.666666 12.8 0 27.733333 4.266667 38.4 12.8l405.333333 292.266666c17.066667 12.8 25.6 29.866667 25.6 51.2V917.333333c0 36.266667-27.733333 64-64 64H106.666667c-36.266667 0-64-27.733333-64-64z m320-384c0-36.266667-27.733333-64-64-64h-85.333334c-36.266667 0-64 27.733333-64 64v85.333334c0 36.266667 27.733333 64 64 64h85.333334c36.266667 0 64-27.733333 64-64v-85.333334z m0 298.666667c0-36.266667-27.733333-64-64-64h-85.333334c-36.266667 0-64 27.733333-64 64v85.333333c0 36.266667 27.733333 64 64 64h85.333334c36.266667 0 64-27.733333 64-64v-85.333333z m320 0c0-36.266667-27.733333-64-64-64h-85.333334c-36.266667 0-64 27.733333-64 64v85.333333c0 36.266667 27.733333 64 64 64h85.333334c36.266667 0 64-27.733333 64-64v-85.333333z" p-id="1799"></path></svg>