<?xml version="1.0" standalone="no"?><!DOCTYPE svg PUBLIC "-//W3C//DTD SVG 1.1//EN" "http://www.w3.org/Graphics/SVG/1.1/DTD/svg11.dtd"><svg class="icon" width="32px" height="32.00px" viewBox="0 0 1024 1024" version="1.1" xmlns="http://www.w3.org/2000/svg"><path d="M117.76 397.94688c0-14.414507 5.137067-26.682027 15.4112-36.64896s22.62016-15.028907 37.113173-15.028907h62.764374v234.243414H170.284373c-14.414507 0-26.835627-4.980053-37.113173-15.025494-10.274133-9.966933-15.4112-22.15936-15.4112-36.652373v-130.88768z m583.50592-214.99904c23.924053-22.77376 45.54752-35.269973 65.024-37.495467s36.64896 2.914987 51.68128 15.4112c15.025493 12.499627 27.757227 30.825813 38.335147 54.975147 10.584747 24.152747 19.16928 51.141973 25.838933 80.817493 6.669653 29.750613 11.656533 60.880213 15.028907 93.392214 3.29728 32.508587 4.983467 63.488 4.983466 92.931413s-2.06848 58.886827-6.28736 88.33024c-4.140373 29.443413-10.277547 57.125547-18.326186 82.967893-8.04864 25.83552-17.483093 48.45568-28.371627 67.93216-10.810027 19.47648-22.92736 33.890987-36.266667 43.322027-13.34272 9.43104-27.67872 12.803413-42.939733 9.966933-15.261013-2.761387-31.2832-13.646507-47.9232-32.508586-16.100693-18.86208-37.952853-34.58048-65.40288-47.080107-27.52512-12.496213-57.511253-23.08096-90.01984-31.665493s-65.40288-15.568213-98.757973-20.855467-63.870293-9.966933-91.706027-14.1824c-27.83232-4.21888-50.988373-8.205653-69.62176-12.117333-18.629973-3.91168-29.06112-8.587947-31.2832-14.1824v-260.932267c2.22208-7.744853 10.963627-14.185813 26.22464-19.16928 15.2576-4.983467 34.73408-9.73824 58.350933-14.185813a8260.532907 8260.532907 0 0 1 80.049494-14.57152c29.750613-5.290667 60.033707-12.499627 90.862933-21.69856a614.222507 614.222507 0 0 0 90.477227-35.04128c29.443413-13.950293 56.12544-32.12288 80.049493-54.360747z m-300.110507 497.319253c2.761387 6.669653 6.13376 13.878613 9.966934 21.69856 3.29728 7.205547 7.744853 15.5648 13.34272 24.99584 5.522773 9.43104 12.192427 19.705173 20.012373 30.8224a1646.318933 1646.318933 0 0 1 28.75392 42.09664c9.73824 14.721707 17.097387 28.064427 22.080853 40.024747 4.98688 11.963733 6.519467 21.777067 4.601174 29.597013-1.91488 7.748267-9.888427 11.656533-23.76704 11.656534h-47.537494c-11.117227 0-21.394773-2.06848-30.825813-6.290774-9.43104-4.140373-18.479787-10.581333-27.067733-19.165866-8.587947-8.59136-17.483093-19.554987-26.682027-32.897707-9.198933-13.339307-19.01568-29.136213-29.597013-47.537493-12.803413-21.087573-21.69856-39.56736-26.682027-55.435947-4.983467-15.872-8.359253-29.064533-9.966933-39.56736-2.22208-12.189013-2.22208-22.77376 0-31.665493 4.447573 0.535893 9.73824 1.686187 15.872 3.29728 4.983467 1.071787 11.117227 2.52928 18.326186 4.140373 7.205547 1.686187 15.5648 3.29728 24.99584 4.983467 9.43104 2.22208 17.94048 4.293973 25.45664 6.290773a209.70496 209.70496 0 0 1 20.394667 6.28736 321.624747 321.624747 0 0 1 18.322773 6.669653z"  /></svg>