<?xml version="1.0" standalone="no"?><!DOCTYPE svg PUBLIC "-//W3C//DTD SVG 1.1//EN" "http://www.w3.org/Graphics/SVG/1.1/DTD/svg11.dtd"><svg t="1530785933042" class="icon" style="" viewBox="0 0 1024 1024" version="1.1" xmlns="http://www.w3.org/2000/svg" p-id="1990" xmlns:xlink="http://www.w3.org/1999/xlink" width="32" height="32"><defs><style type="text/css"></style></defs><path d="M312 437.824l167.296-167.232L646.4 437.696c6.848 6.912 16 9.92 25.088 9.536a33.024 33.024 0 0 0 25.088-9.536L864 270.272V320a32 32 0 0 0 64 0V192a30.848 30.848 0 0 0-5.376-16.704l-1.664-2.56A31.616 31.616 0 0 0 896 160c-0.704 0-1.28 0.32-1.92 0.384-0.96 0-1.856-0.512-2.816-0.384H768a32 32 0 0 0 0 64h47.616l-144.128 144.128-166.912-166.848a32.96 32.96 0 0 0-25.024-9.536 32.576 32.576 0 0 0-24.64 9.472L265.216 390.912a33.152 33.152 0 0 0 46.784 46.912zM928 896H896v-128a64 64 0 0 0-64-64h-64a64 64 0 0 0-64 64v128h-64V576a64 64 0 0 0-64-64H512a64 64 0 0 0-64 64v320H384v-192a64 64 0 0 0-64-64H256a64 64 0 0 0-64 64v192H128V96a32 32 0 0 0-64 0v832a32 32 0 0 0 32 32h832a32 32 0 0 0 0-64zM320 896H256v-192h64v192z m256 0H512V576h64v320z m256 0h-64v-128h64v128z" p-id="1991"></path></svg>