<?xml version="1.0" standalone="no"?><!DOCTYPE svg PUBLIC "-//W3C//DTD SVG 1.1//EN" "http://www.w3.org/Graphics/SVG/1.1/DTD/svg11.dtd"><svg class="icon" width="32px" height="32.00px" viewBox="0 0 1024 1024" version="1.1" xmlns="http://www.w3.org/2000/svg"><path fill="#ffffff" d="M192.565249 677.91989c14.132882 0 25.629727-11.495822 25.629727-25.62768L218.194976 517.912663l268.757047 0 0 134.378523c0 14.131859 11.496845 25.62768 25.628704 25.62768s25.629727-11.495822 25.629727-25.62768L538.210453 517.912663l268.757047 0 0 134.378523c0 14.131859 11.496845 25.62768 25.629727 25.62768 14.131859 0 25.628704-11.495822 25.628704-25.62768L858.225931 492.283959c0-14.131859-11.496845-25.628704-25.628704-25.628704L538.210453 466.655256l0-94.377484c0-14.131859-11.496845-25.628704-25.629727-25.628704s-25.628704 11.496845-25.628704 25.628704l0 94.377484L192.565249 466.655256c-14.132882 0-25.629727 11.496845-25.629727 25.628704l0 160.00825C166.935522 666.423045 178.43339 677.91989 192.565249 677.91989zM472.578664 317.903374l80.004125 0c47.218418 0 85.632309-38.414915 85.632309-85.632309l0-80.005149c0-47.217395-38.413891-85.631286-85.632309-85.631286l-80.004125 0c-47.218418 0-85.632309 38.413891-85.632309 85.631286l0 80.005149C386.946354 279.488459 425.361269 317.903374 472.578664 317.903374zM438.205808 152.266939c0-18.953677 15.419178-34.372855 34.372855-34.372855l80.004125 0c18.953677 0 34.373879 15.419178 34.373879 34.372855l0 80.005149c0 18.953677-15.419178 34.373879-34.373879 34.373879l-80.004125 0c-18.953677 0-34.372855-15.420201-34.372855-34.373879L438.205808 152.266939zM232.567311 706.666608l-80.005149 0c-47.217395 0-85.631286 38.414915-85.631286 85.634356l0 80.003102c0 47.218418 38.413891 85.632309 85.631286 85.632309l80.005149 0c47.217395 0 85.632309-38.413891 85.632309-85.632309l0-80.003102C318.199621 745.081523 279.784706 706.666608 232.567311 706.666608zM266.94119 872.303043c0 18.953677-15.420201 34.373879-34.373879 34.373879l-80.005149 0c-18.953677 0-34.372855-15.419178-34.372855-34.373879l0-80.003102c0-18.953677 15.419178-34.374902 34.372855-34.374902l80.005149 0c18.953677 0 34.373879 15.420201 34.373879 34.374902L266.94119 872.303043zM872.59929 706.666608l-80.003102 0c-47.219441 0-85.634356 38.414915-85.634356 85.634356l0 80.003102c0 47.218418 38.414915 85.632309 85.634356 85.632309l80.003102 0c47.218418 0 85.632309-38.413891 85.632309-85.632309l0-80.003102C958.230576 745.081523 919.816684 706.666608 872.59929 706.666608zM906.973168 872.303043c0 18.953677-15.420201 34.373879-34.374902 34.373879l-80.003102 0c-18.953677 0-34.374902-15.419178-34.374902-34.373879l0-80.003102c0-18.953677 15.420201-34.374902 34.374902-34.374902l80.003102 0c18.953677 0 34.374902 15.420201 34.374902 34.374902L906.973168 872.303043zM552.582789 706.666608l-80.004125 0c-47.218418 0-85.632309 38.414915-85.632309 85.634356l0 80.003102c0 47.218418 38.414915 85.632309 85.632309 85.632309l80.004125 0c47.218418 0 85.632309-38.413891 85.632309-85.632309l0-80.003102C638.215098 745.081523 599.801207 706.666608 552.582789 706.666608zM586.956667 872.303043c0 18.953677-15.419178 34.373879-34.373879 34.373879l-80.004125 0c-18.953677 0-34.372855-15.419178-34.372855-34.373879l0-80.003102c0-18.953677 15.419178-34.374902 34.372855-34.374902l80.004125 0c18.953677 0 34.373879 15.420201 34.373879 34.374902L586.956667 872.303043z" /></svg>