<?xml version="1.0" standalone="no"?><!DOCTYPE svg PUBLIC "-//W3C//DTD SVG 1.1//EN" "http://www.w3.org/Graphics/SVG/1.1/DTD/svg11.dtd"><svg class="icon" width="32px" height="32.00px" viewBox="0 0 1024 1024" version="1.1" xmlns="http://www.w3.org/2000/svg"><path fill="#ffffff" d="M673.494 826.665c0-10.853-8.799-19.629-19.633-19.629h-274.817c-10.846 0-19.627 8.778-19.627 19.629v78.509h-196.299v58.887h706.675v-58.887h-196.3v-78.509zM909.050 61.164h-785.192c-32.53 0-58.889 26.334-58.889 58.887v549.588c0 32.507 26.36 58.881 58.889 58.881h785.192c32.513 0 58.894-26.374 58.894-58.881v-549.588c-0.001-32.552-26.38-58.887-58.894-58.887v0zM909.050 649.971c0 10.847-8.794 19.626-19.627 19.626h-745.93c-10.853 0-19.633-8.781-19.633-19.626v-510.332c0-10.847 8.781-19.626 19.633-19.626h745.93c10.834 0 19.633 8.781 19.633 19.626v510.332h-0.004zM693.121 591.126h98.149v-255.166h-98.149v255.166zM536.082 591.126h98.149v-333.681h-98.149v333.681zM241.634 591.126h98.149v-98.139h-98.149v98.139zM379.044 591.126h98.151v-176.674h-98.151v176.674zM379.044 591.126z" /></svg>