<?xml version="1.0" standalone="no"?><!DOCTYPE svg PUBLIC "-//W3C//DTD SVG 1.1//EN" "http://www.w3.org/Graphics/SVG/1.1/DTD/svg11.dtd"><svg class="icon" width="32px" height="32.00px" viewBox="0 0 1024 1024" version="1.1" xmlns="http://www.w3.org/2000/svg"><path fill="#ffffff" d="M780.8 390.4L608 492.8l-121.6-64-51.2-38.4h-6.4l-51.2 38.4L256 499.2c-12.8 6.4-19.2 25.6-12.8 44.8 12.8 19.2 32 19.2 51.2 12.8l140.8-83.2L608 576l32-19.2 179.2-102.4c19.2-6.4 19.2-32 12.8-44.8-12.8-19.2-32-25.6-51.2-19.2zM915.2 96H160c-38.4 0-70.4 32-70.4 70.4v550.4c0 38.4 32 70.4 70.4 70.4h345.6v140.8H224c-19.2-6.4-32 12.8-32 32s12.8 32 32 32h620.8c19.2 0 32-12.8 32-32s-12.8-32-32-32H569.6v-140.8h345.6c38.4 0 70.4-32 70.4-70.4V166.4c0-38.4-32-70.4-70.4-70.4z m0 588.8c0 19.2-12.8 32-32 32H192c-19.2 0-32-12.8-32-32V198.4c0-19.2 12.8-32 32-32h691.2c19.2 0 32 12.8 32 32v486.4z" /></svg>