<?xml version="1.0" standalone="no"?><!DOCTYPE svg PUBLIC "-//W3C//DTD SVG 1.1//EN" "http://www.w3.org/Graphics/SVG/1.1/DTD/svg11.dtd"><svg class="icon" width="32px" height="32.00px" viewBox="0 0 1024 1024" version="1.1" xmlns="http://www.w3.org/2000/svg"><path fill="#ffffff" d="M347.856 863.968h-0.528l0.528 2.224v-2.224zM347.856 952.944v-83.728l-0.352 1.632c-1.824 8.496-11.008 14-23.424 14H60.944c-12.336 0-21.488-5.44-23.328-13.856l-0.336-1.664v83.616c-0.912 4.48 0 8.736 2.688 12.24 4.048 5.328 11.68 8.384 20.976 8.384h263.152c9.296 0 16.944-3.056 21.024-8.4a14.72 14.72 0 0 0 2.736-12.224zM100.272 971.856c-22.08 0-40.528-19.552-40.528-43.008 0-23.456 18.432-43.008 40.528-43.008S140.8 905.408 140.8 928.848c0 23.472-18.432 43.008-40.528 43.008z m120.48-10.32h-35.552v-63.648h35.552v63.648z m46.928 0.512h-35.312v-64.16h35.312v64.16z m49.52-1.008h-36.032v-62.912h36.032v62.912zM324.096 877.12H60.944c-10.128 0-18.096-3.536-21.872-9.68-2.608-4.256-2.832-9.472-0.624-14.704l14.432-34.352 8.528-20.288 2.144-5.072h258.016l2.16 5.088c6.848 16.304 14.432 34.416 22.96 54.64 2.176 5.2 1.952 10.384-0.64 14.656-3.744 6.08-11.952 9.712-21.952 9.712zM124.896 930.416l0.016-0.832c0-13.84-10.896-25.408-23.952-25.408l-0.832-0.064c-13.024 0.352-23.504 11.728-23.504 25.664 0 14.128 10.816 25.632 24.128 25.632 12.992 0 23.616-10.944 24.128-24.592l0.016-0.4zM100.752 892.64c18.496 0 33.536 15.968 33.536 35.6 0 19.648-15.04 35.616-33.536 35.616s-33.536-15.968-33.536-35.616c0.016-19.632 15.056-35.6 33.536-35.6zM100.752 892.272c18.672 0 33.888 16.144 33.888 35.968 0 19.856-15.216 35.984-33.888 35.984-18.688 0-33.888-16.144-33.888-35.984 0.016-19.824 15.2-35.968 33.888-35.968z m33.552 35.968c0-19.632-15.04-35.6-33.536-35.6s-33.536 15.968-33.536 35.6c0 19.648 15.04 35.616 33.536 35.616s33.536-15.984 33.536-35.616zM186.944 901.536h32.032v7.68h-32.032v-7.68zM186.944 909.968h32.032v7.296h-32.032v-7.296zM186.944 917.92h32.032v7.312h-32.032v-7.312zM186.944 926.096h32.032v7.312h-32.032v-7.312zM186.944 934.16h32.032v7.28h-32.032v-7.28zM186.944 942.4h32.032v7.296h-32.032V942.4zM186.944 950.512h32.032v7.28h-32.032v-7.28zM233.872 901.632h32.016v7.664h-32.016v-7.664zM233.872 910.048h32.016v7.28h-32.016v-7.28zM233.872 918h32.016v7.312h-32.016v-7.312zM233.872 926.192h32.016v7.28h-32.016v-7.28zM233.872 934.24h32.016v7.296h-32.016v-7.296zM233.872 942.496h32.016v7.28h-32.016v-7.28zM233.872 950.576h32.016v7.312h-32.016v-7.312zM282.912 901.408h32.032v7.68h-32.032v-7.68zM282.912 909.824h32.032v7.296h-32.032v-7.296zM282.912 917.792h32.032v7.296h-32.032v-7.296zM282.912 925.936h32.032v7.328h-32.032v-7.328zM282.912 934h32.032v7.296h-32.032v-7.296zM282.912 942.272h32.032v7.296h-32.032v-7.296zM282.912 950.352h32.032v7.328h-32.032v-7.328zM89.36 139.808H43.872V105.68h45.488v-7.984H43.872V63.584H136.4V30.08H31.968v222.24h104.4v-23.68H89.36V139.808z m-26.592 46.496H43.792v-10.608h18.976v10.608z m0-19.136H43.792v-10.608h18.976v10.608z m-11.84-53.328h38.448v19.056H50.928V113.84z m0-42.72h38.448v19.04H50.928v-19.04z m52.208 4.496v141.376h236.992V75.616H103.136z m223.04 127.44H117.104V89.568h209.104v113.488z m-64.656 21.6h-79.776v15.968h-15.824v11.68h111.44v-11.68h-15.84v-15.984zM735.088 387.472a240.928 240.928 0 0 1 94.384-19.152c3.216 0 6.448 0.144 9.68 0.144 15.36-38.8 19.264-84.672 11.536-129.232-17.84-102.256-114.336-170.592-215.696-152.608-101.264 18.016-186.784 96.752-168.784 199.008 3.808 22.064 14.496 56.496 27.168 81.408L309.408 632.416c-6.72 9.712-10.688 27.296-8.56 39.232l8 45.456c-7.584-43.744 2.096 15.744 8.032 15.584l60.576 0.848c11.68-2.064 26.32-11.92 32.784-21.936l72.72-113.744 0.688-0.704 63.584 5.056 84.944-133.168c0.272 0 0.56 0.144 0.832 0.144a253.92 253.92 0 0 1 25.168-29.552 236.768 236.768 0 0 1 76.912-52.16zM349.232 660.4l-9.008 3.808 0.976-9.84L517.44 398.576l10.528 9.84-178.736 251.984z m267.744-470.672c27.872-40.08 82.72-50.048 122.352-21.808 39.792 28.272 49.504 83.664 21.648 123.76-27.808 40.064-56.256 11.808-96.048-16.32-39.648-28.256-75.808-45.392-47.952-85.632z m210.112 227.808c-106.752 0-193.232 86.48-193.232 193.232 0 106.768 86.48 193.248 193.232 193.248 106.736 0 193.216-86.48 193.216-193.248 0.016-106.752-86.48-193.232-193.216-193.232z m111.664 272.56c0 28.832-55.28 35.456-107.168 35.456-51.904 0-107.84-6.624-107.84-35.456v-8c0-21.264 38.256-42.768 70.72-54.448 2.4-0.848 13.664-7.024 7.312-23.488-16.16-16.416-28.272-43.152-28.272-69.456 0-40.224 26.576-61.312 57.776-61.312 31.104 0 57.968 21.088 57.968 61.312 0 26.176-12.256 52.72-28.272 69.328h0.128c-6.176 18.736 3.664 23.216 5.2 23.616 34.192 11.264 72.56 32.64 72.56 54.448l-0.112 8zM120 292h36v56H120zM119.664 372.992h36v56h-36zM154.672 493.248h70.496v31.68H154.672zM119.664 454.992h36v114.016h-36zM119.328 602h36v56h-36zM119.008 683.008h36v56h-36zM262.672 493.248h79.488v31.664h-79.488z" /></svg>