<?xml version="1.0" standalone="no"?><!DOCTYPE svg PUBLIC "-//W3C//DTD SVG 1.1//EN" "http://www.w3.org/Graphics/SVG/1.1/DTD/svg11.dtd"><svg class="icon" width="32px" height="32.00px" viewBox="0 0 1024 1024" version="1.1" xmlns="http://www.w3.org/2000/svg"><path fill="#ffffff" d="M860.16 184.32H163.84a122.88 122.88 0 0 0-122.88 122.88v40.96a122.88 122.88 0 0 0 122.88 122.88h696.32a122.88 122.88 0 0 0 122.88-122.88v-40.96a122.88 122.88 0 0 0-122.88-122.88z m81.92 163.84a81.92 81.92 0 0 1-81.92 81.92H163.84a81.92 81.92 0 0 1-81.92-81.92v-40.96a81.92 81.92 0 0 1 81.92-81.92h696.32a81.92 81.92 0 0 1 81.92 81.92zM860.16 552.96H163.84a122.88 122.88 0 0 0-122.88 122.88v40.96a122.88 122.88 0 0 0 122.88 122.88h696.32a122.88 122.88 0 0 0 122.88-122.88v-40.96a122.88 122.88 0 0 0-122.88-122.88z m81.92 163.84a81.92 81.92 0 0 1-81.92 81.92H163.84a81.92 81.92 0 0 1-81.92-81.92v-40.96a81.92 81.92 0 0 1 81.92-81.92h696.32a81.92 81.92 0 0 1 81.92 81.92zM184.32 266.24a61.44 61.44 0 1 0 61.44 61.44 61.44 61.44 0 0 0-61.44-61.44z m0 81.92a20.48 20.48 0 1 1 20.48-20.48 20.48 20.48 0 0 1-20.48 20.48zM839.68 634.88a61.44 61.44 0 1 0 61.44 61.44 61.44 61.44 0 0 0-61.44-61.44z m0 81.92a20.48 20.48 0 1 1 20.48-20.48 20.48 20.48 0 0 1-20.48 20.48zM204.8 614.4a81.92 81.92 0 0 0-79.0528 102.4h43.8272A40.96 40.96 0 0 1 163.84 696.32a40.96 40.96 0 0 1 40.96-40.96h81.92v-40.96zM860.16 327.68a40.96 40.96 0 0 1-5.7344 20.48h43.8272A81.92 81.92 0 0 0 819.2 245.76v40.96a40.96 40.96 0 0 1 40.96 40.96zM737.28 245.76h40.96v40.96h-40.96z" /></svg>